<svg width="105" height="107" viewBox="0 0 105 107" fill="none" xmlns="http://www.w3.org/2000/svg">
<path d="M16.6788 85.4432C16.1389 85.4432 15.6357 85.3566 15.1691 85.1833C14.7092 85.0033 14.3092 84.75 13.9693 84.4234C13.6293 84.0968 13.3627 83.7135 13.1694 83.2736C12.9828 82.8336 12.8894 82.3504 12.8894 81.8238C12.8894 81.2972 12.9828 80.814 13.1694 80.374C13.3627 79.9341 13.6293 79.5508 13.9693 79.2242C14.3159 78.8976 14.7192 78.6476 15.1791 78.4743C15.639 78.2944 16.1423 78.2044 16.6888 78.2044C17.2954 78.2044 17.842 78.311 18.3286 78.5243C18.8218 78.731 19.2351 79.0376 19.5684 79.4442L18.5286 80.404C18.2886 80.1307 18.022 79.9274 17.7287 79.7941C17.4354 79.6541 17.1154 79.5842 16.7688 79.5842C16.4422 79.5842 16.1423 79.6375 15.869 79.7441C15.5957 79.8508 15.3591 80.0041 15.1591 80.2041C14.9591 80.404 14.8025 80.6407 14.6892 80.9139C14.5825 81.1872 14.5292 81.4905 14.5292 81.8238C14.5292 82.1571 14.5825 82.4604 14.6892 82.7337C14.8025 83.0069 14.9591 83.2436 15.1591 83.4435C15.3591 83.6435 15.5957 83.7968 15.869 83.9035C16.1423 84.0101 16.4422 84.0634 16.7688 84.0634C17.1154 84.0634 17.4354 83.9968 17.7287 83.8635C18.022 83.7235 18.2886 83.5135 18.5286 83.2336L19.5684 84.1934C19.2351 84.6 18.8218 84.91 18.3286 85.1233C17.842 85.3366 17.2921 85.4432 16.6788 85.4432ZM21.1621 85.3232V78.3244H24.1916C24.8182 78.3244 25.3581 78.4277 25.8114 78.6343C26.2646 78.8343 26.6146 79.1242 26.8612 79.5042C27.1078 79.8841 27.2312 80.3374 27.2312 80.8639C27.2312 81.3839 27.1078 81.8338 26.8612 82.2137C26.6146 82.587 26.2646 82.8736 25.8114 83.0736C25.3581 83.2736 24.8182 83.3736 24.1916 83.3736H22.062L22.7819 82.6637V85.3232H21.1621ZM25.6114 85.3232L23.8617 82.7836H25.5914L27.3611 85.3232H25.6114ZM22.7819 82.8436L22.062 82.0838H24.1017C24.6016 82.0838 24.9748 81.9771 25.2215 81.7638C25.4681 81.5438 25.5914 81.2439 25.5914 80.8639C25.5914 80.4773 25.4681 80.1774 25.2215 79.9641C24.9748 79.7508 24.6016 79.6441 24.1017 79.6441H22.062L22.7819 78.8743V82.8436ZM29.0144 85.3232V78.3244H30.3542L33.3337 83.2636H32.6238L35.5534 78.3244H36.8831L36.9031 85.3232H35.3834L35.3734 80.654H35.6533L33.3137 84.5834H32.5838L30.1942 80.654H30.5341V85.3232H29.0144ZM44.6947 85.4432C44.1348 85.4432 43.5982 85.3699 43.085 85.2233C42.5717 85.0699 42.1585 84.8733 41.8452 84.6334L42.3951 83.4135C42.695 83.6268 43.0483 83.8035 43.4549 83.9435C43.8682 84.0768 44.2848 84.1434 44.7047 84.1434C45.0247 84.1434 45.2813 84.1134 45.4746 84.0534C45.6746 83.9868 45.8212 83.8968 45.9145 83.7835C46.0078 83.6702 46.0545 83.5402 46.0545 83.3935C46.0545 83.2069 45.9812 83.0603 45.8345 82.9536C45.6879 82.8403 45.4946 82.7503 45.2546 82.6837C45.0147 82.6103 44.748 82.5437 44.4548 82.4837C44.1681 82.417 43.8782 82.337 43.5849 82.2437C43.2983 82.1504 43.035 82.0304 42.795 81.8838C42.5551 81.7371 42.3584 81.5438 42.2051 81.3039C42.0585 81.0639 41.9851 80.7573 41.9851 80.384C41.9851 79.9841 42.0918 79.6208 42.3051 79.2942C42.5251 78.9609 42.8517 78.6976 43.2849 78.5043C43.7249 78.3044 44.2748 78.2044 44.9347 78.2044C45.3746 78.2044 45.8079 78.2577 46.2345 78.3643C46.6611 78.4643 47.0377 78.6176 47.3643 78.8243L46.8644 80.0541C46.5378 79.8674 46.2111 79.7308 45.8845 79.6441C45.5579 79.5508 45.238 79.5042 44.9247 79.5042C44.6114 79.5042 44.3548 79.5408 44.1548 79.6141C43.9548 79.6875 43.8115 79.7841 43.7249 79.9041C43.6382 80.0174 43.5949 80.1507 43.5949 80.304C43.5949 80.484 43.6682 80.6307 43.8149 80.744C43.9615 80.8506 44.1548 80.9373 44.3948 81.0039C44.6347 81.0706 44.898 81.1372 45.1846 81.2039C45.4779 81.2706 45.7679 81.3472 46.0545 81.4339C46.3478 81.5205 46.6144 81.6372 46.8544 81.7838C47.0943 81.9304 47.2876 82.1237 47.4343 82.3637C47.5876 82.6037 47.6642 82.907 47.6642 83.2736C47.6642 83.6668 47.5543 84.0268 47.3343 84.3534C47.1143 84.68 46.7844 84.9433 46.3445 85.1433C45.9112 85.3432 45.3613 85.4432 44.6947 85.4432ZM50.8642 85.3232V82.4637L51.2341 83.4435L48.1546 78.3244H49.8744L52.234 82.2537H51.2441L53.6138 78.3244H55.2035L52.124 83.4435L52.4839 82.4637V85.3232H50.8642ZM58.5343 85.4432C57.9744 85.4432 57.4378 85.3699 56.9246 85.2233C56.4113 85.0699 55.9981 84.8733 55.6848 84.6334L56.2347 83.4135C56.5346 83.6268 56.8879 83.8035 57.2945 83.9435C57.7078 84.0768 58.1244 84.1434 58.5443 84.1434C58.8643 84.1434 59.1209 84.1134 59.3142 84.0534C59.5142 83.9868 59.6608 83.8968 59.7541 83.7835C59.8474 83.6702 59.8941 83.5402 59.8941 83.3935C59.8941 83.2069 59.8208 83.0603 59.6741 82.9536C59.5275 82.8403 59.3342 82.7503 59.0942 82.6837C58.8543 82.6103 58.5876 82.5437 58.2944 82.4837C58.0077 82.417 57.7178 82.337 57.4245 82.2437C57.1379 82.1504 56.8746 82.0304 56.6346 81.8838C56.3947 81.7371 56.198 81.5438 56.0447 81.3039C55.8981 81.0639 55.8247 80.7573 55.8247 80.384C55.8247 79.9841 55.9314 79.6208 56.1447 79.2942C56.3647 78.9609 56.6913 78.6976 57.1245 78.5043C57.5645 78.3044 58.1144 78.2044 58.7743 78.2044C59.2142 78.2044 59.6475 78.2577 60.0741 78.3643C60.5007 78.4643 60.8773 78.6176 61.2039 78.8243L60.704 80.0541C60.3774 79.8674 60.0507 79.7308 59.7241 79.6441C59.3975 79.5508 59.0776 79.5042 58.7643 79.5042C58.451 79.5042 58.1944 79.5408 57.9944 79.6141C57.7944 79.6875 57.6511 79.7841 57.5645 79.9041C57.4778 80.0174 57.4345 80.1507 57.4345 80.304C57.4345 80.484 57.5078 80.6307 57.6545 80.744C57.8011 80.8506 57.9944 80.9373 58.2344 81.0039C58.4743 81.0706 58.7376 81.1372 59.0242 81.2039C59.3175 81.2706 59.6075 81.3472 59.8941 81.4339C60.1874 81.5205 60.454 81.6372 60.694 81.7838C60.9339 81.9304 61.1272 82.1237 61.2739 82.3637C61.4272 82.6037 61.5038 82.907 61.5038 83.2736C61.5038 83.6668 61.3939 84.0268 61.1739 84.3534C60.9539 84.68 60.624 84.9433 60.1841 85.1433C59.7508 85.3432 59.2009 85.4432 58.5343 85.4432ZM64.4627 85.3232V79.6441H62.223V78.3244H68.3221V79.6441H66.0824V85.3232H64.4627ZM71.1832 81.1439H74.5527V82.4037H71.1832V81.1439ZM71.3032 84.0234H75.1126V85.3232H69.6935V78.3244H74.9826V79.6241H71.3032V84.0234ZM76.9013 85.3232V78.3244H78.2411L81.2206 83.2636H80.5107L83.4403 78.3244H84.7701L84.7901 85.3232H83.2703L83.2603 80.654H83.5403L81.2006 84.5834H80.4708L78.0811 80.654H78.4211V85.3232H76.9013ZM89.2501 85.4432C88.6902 85.4432 88.1536 85.3699 87.6404 85.2233C87.1271 85.0699 86.7139 84.8733 86.4006 84.6334L86.9505 83.4135C87.2505 83.6268 87.6037 83.8035 88.0103 83.9435C88.4236 84.0768 88.8402 84.1434 89.2601 84.1434C89.5801 84.1434 89.8367 84.1134 90.03 84.0534C90.23 83.9868 90.3766 83.8968 90.4699 83.7835C90.5633 83.6702 90.6099 83.5402 90.6099 83.3935C90.6099 83.2069 90.5366 83.0603 90.39 82.9536C90.2433 82.8403 90.05 82.7503 89.8101 82.6837C89.5701 82.6103 89.3035 82.5437 89.0102 82.4837C88.7236 82.417 88.4336 82.337 88.1403 82.2437C87.8537 82.1504 87.5904 82.0304 87.3504 81.8838C87.1105 81.7371 86.9138 81.5438 86.7605 81.3039C86.6139 81.0639 86.5406 80.7573 86.5406 80.384C86.5406 79.9841 86.6472 79.6208 86.8605 79.2942C87.0805 78.9609 87.4071 78.6976 87.8404 78.5043C88.2803 78.3044 88.8302 78.2044 89.4901 78.2044C89.93 78.2044 90.3633 78.2577 90.7899 78.3643C91.2165 78.4643 91.5931 78.6176 91.9197 78.8243L91.4198 80.0541C91.0932 79.8674 90.7666 79.7308 90.44 79.6441C90.1133 79.5508 89.7934 79.5042 89.4801 79.5042C89.1668 79.5042 88.9102 79.5408 88.7102 79.6141C88.5103 79.6875 88.3669 79.7841 88.2803 79.9041C88.1936 80.0174 88.1503 80.1507 88.1503 80.304C88.1503 80.484 88.2236 80.6307 88.3703 80.744C88.5169 80.8506 88.7102 80.9373 88.9502 81.0039C89.1901 81.0706 89.4534 81.1372 89.7401 81.2039C90.0333 81.2706 90.3233 81.3472 90.6099 81.4339C90.9032 81.5205 91.1698 81.6372 91.4098 81.7838C91.6498 81.9304 91.8431 82.1237 91.9897 82.3637C92.143 82.6037 92.2197 82.907 92.2197 83.2736C92.2197 83.6668 92.1097 84.0268 91.8897 84.3534C91.6698 84.68 91.3398 84.9433 90.8999 85.1433C90.4666 85.3432 89.9167 85.4432 89.2501 85.4432Z" fill="#4A4646"/>
<path d="M11.5819 70.2956C11.5819 70.7555 11.4669 71.1771 11.237 71.5604C11.007 71.9437 10.7004 72.2503 10.3171 72.4802C9.93384 72.7102 9.51224 72.8252 9.05231 72.8252H5.37289C4.91297 72.8252 4.48498 72.7102 4.08893 72.4802C3.70566 72.2503 3.39904 71.9437 3.16908 71.5604C2.93911 71.1771 2.82413 70.7555 2.82413 70.2956V69.7207C2.82413 69.4779 2.90717 69.2735 3.07326 69.1075C3.25212 68.9286 3.46292 68.8392 3.70566 68.8392H4.24224C4.4722 68.8392 4.67023 68.9286 4.83631 69.1075C5.01517 69.2735 5.1046 69.4779 5.1046 69.7207V70.2956C5.1046 70.3595 5.13015 70.4234 5.18126 70.4872C5.24514 70.5383 5.30901 70.5639 5.37289 70.5639H9.05231C9.11619 70.5639 9.17368 70.5383 9.22478 70.4872C9.27589 70.4234 9.30144 70.3595 9.30144 70.2956V68.5517C9.30144 68.4112 9.23756 68.3217 9.1098 68.2834L4.51053 66.5587C3.9995 66.3798 3.59068 66.0668 3.28406 65.6197C2.97744 65.1725 2.82413 64.6807 2.82413 64.1441V62.4193C2.82413 61.9466 2.93911 61.5187 3.16908 61.1354C3.39904 60.7521 3.70566 60.4455 4.08893 60.2155C4.48498 59.9856 4.91297 59.8706 5.37289 59.8706H9.05231C9.51224 59.8706 9.93384 59.9856 10.3171 60.2155C10.7004 60.4455 11.007 60.7521 11.237 61.1354C11.4669 61.5187 11.5819 61.9466 11.5819 62.4193V62.9368C11.5819 63.1795 11.4925 63.3839 11.3136 63.55C11.1475 63.7161 10.9431 63.7991 10.7004 63.7991H10.183C9.94022 63.7991 9.72942 63.7161 9.55056 63.55C9.38448 63.3839 9.30144 63.1795 9.30144 62.9368V62.4193C9.30144 62.2405 9.21839 62.1511 9.05231 62.1511H5.37289C5.30901 62.1511 5.24514 62.1766 5.18126 62.2277C5.13015 62.2788 5.1046 62.3427 5.1046 62.4193V64.1441C5.1046 64.2974 5.16848 64.3932 5.29624 64.4315L9.91467 66.1563C10.4129 66.3351 10.8154 66.6481 11.122 67.0953C11.4286 67.5424 11.5819 68.0279 11.5819 68.5517V70.2956ZM23.043 71.6754C23.1196 71.9692 23.0749 72.2375 22.9088 72.4802C22.7427 72.7102 22.5064 72.8252 22.1998 72.8252H21.644C21.4652 72.8252 21.2927 72.7677 21.1266 72.6527C20.9733 72.5377 20.8647 72.3972 20.8008 72.2311L20.0726 70.0273C20.0215 69.8612 19.9129 69.7782 19.7468 69.7782H16.4698C16.3037 69.7782 16.1952 69.8612 16.144 70.0273L15.4158 72.2311C15.352 72.3972 15.2434 72.5377 15.09 72.6527C14.9367 72.7677 14.7643 72.8252 14.5726 72.8252H14.0169C13.7103 72.8252 13.4739 72.7102 13.3078 72.4802C13.129 72.2247 13.0906 71.9564 13.1929 71.6754L16.9106 60.4647C16.9745 60.2858 17.0767 60.1453 17.2172 60.0431C17.3705 59.9281 17.5366 59.8706 17.7155 59.8706H18.5012C18.68 59.8706 18.8461 59.9281 18.9994 60.0431C19.1527 60.1453 19.2549 60.2858 19.306 60.4647L23.043 71.6754ZM19.1719 67.2677L18.2137 64.3357C18.1498 64.2463 18.0796 64.2463 18.0029 64.3357L17.0447 67.2677C17.0192 67.3316 17.0256 67.3891 17.0639 67.4402C17.1022 67.4913 17.1533 67.5169 17.2172 67.5169H18.9994C19.0633 67.5169 19.1144 67.4913 19.1527 67.4402C19.1911 67.3891 19.1975 67.3316 19.1719 67.2677ZM32.9243 71.9437C32.9243 72.1864 32.8349 72.3972 32.6561 72.5761C32.49 72.7422 32.292 72.8252 32.062 72.8252H25.4697C25.2397 72.8252 25.0353 72.7422 24.8565 72.5761C24.6904 72.3972 24.6073 72.1864 24.6073 71.9437V60.7521C24.6073 60.4966 24.6904 60.2858 24.8565 60.1197C25.0353 59.9536 25.2397 59.8706 25.4697 59.8706H26.0063C26.249 59.8706 26.4534 59.9536 26.6195 60.1197C26.7984 60.2858 26.8878 60.4966 26.8878 60.7521V70.3148C26.8878 70.4808 26.9645 70.5639 27.1178 70.5639H32.062C32.292 70.5639 32.49 70.6469 32.6561 70.813C32.8349 70.9791 32.9243 71.1899 32.9243 71.4454V71.9437ZM42.7682 71.9437C42.7682 72.1864 42.6787 72.3972 42.4999 72.5761C42.3338 72.7422 42.1358 72.8252 41.9058 72.8252H35.3135C35.0836 72.8252 34.8791 72.7422 34.7003 72.5761C34.5342 72.3972 34.4512 72.1864 34.4512 71.9437V60.7521C34.4512 60.4966 34.5342 60.2858 34.7003 60.1197C34.8791 59.9536 35.0836 59.8706 35.3135 59.8706H41.9058C42.1358 59.8706 42.3338 59.9536 42.4999 60.1197C42.6787 60.2858 42.7682 60.4966 42.7682 60.7521V61.2695C42.7682 61.5123 42.6787 61.7231 42.4999 61.9019C42.3338 62.068 42.1358 62.1511 41.9058 62.1511H36.9616C36.8083 62.1511 36.7316 62.2341 36.7316 62.4002V64.9489C36.7316 65.1278 36.8083 65.2172 36.9616 65.2172H41.2159C41.4714 65.2172 41.6822 65.3003 41.8483 65.4664C42.0144 65.6324 42.0974 65.8369 42.0974 66.0796V66.6162C42.0974 66.8589 42.0144 67.0697 41.8483 67.2486C41.6822 67.4147 41.4714 67.4977 41.2159 67.4977H36.9616C36.8083 67.4977 36.7316 67.5744 36.7316 67.7277V70.3148C36.7316 70.4808 36.8083 70.5639 36.9616 70.5639H41.9058C42.1358 70.5639 42.3338 70.6469 42.4999 70.813C42.6787 70.9791 42.7682 71.1899 42.7682 71.4454V71.9437ZM53.0719 70.2956C53.0719 70.7555 52.9569 71.1771 52.727 71.5604C52.497 71.9437 52.1904 72.2503 51.8071 72.4802C51.4238 72.7102 51.0022 72.8252 50.5423 72.8252H46.8629C46.403 72.8252 45.975 72.7102 45.5789 72.4802C45.1957 72.2503 44.889 71.9437 44.6591 71.5604C44.4291 71.1771 44.3141 70.7555 44.3141 70.2956V69.7207C44.3141 69.4779 44.3972 69.2735 44.5633 69.1075C44.7421 68.9286 44.9529 68.8392 45.1957 68.8392H45.7322C45.9622 68.8392 46.1602 68.9286 46.3263 69.1075C46.5052 69.2735 46.5946 69.4779 46.5946 69.7207V70.2956C46.5946 70.3595 46.6202 70.4234 46.6713 70.4872C46.7351 70.5383 46.799 70.5639 46.8629 70.5639H50.5423C50.6062 70.5639 50.6637 70.5383 50.7148 70.4872C50.7659 70.4234 50.7914 70.3595 50.7914 70.2956V68.5517C50.7914 68.4112 50.7276 68.3217 50.5998 68.2834L46.0005 66.5587C45.4895 66.3798 45.0807 66.0668 44.7741 65.6197C44.4674 65.1725 44.3141 64.6807 44.3141 64.1441V62.4193C44.3141 61.9466 44.4291 61.5187 44.6591 61.1354C44.889 60.7521 45.1957 60.4455 45.5789 60.2155C45.975 59.9856 46.403 59.8706 46.8629 59.8706H50.5423C51.0022 59.8706 51.4238 59.9856 51.8071 60.2155C52.1904 60.4455 52.497 60.7521 52.727 61.1354C52.9569 61.5187 53.0719 61.9466 53.0719 62.4193V62.9368C53.0719 63.1795 52.9825 63.3839 52.8036 63.55C52.6375 63.7161 52.4331 63.7991 52.1904 63.7991H51.673C51.4302 63.7991 51.2194 63.7161 51.0406 63.55C50.8745 63.3839 50.7914 63.1795 50.7914 62.9368V62.4193C50.7914 62.2405 50.7084 62.1511 50.5423 62.1511H46.8629C46.799 62.1511 46.7351 62.1766 46.6713 62.2277C46.6202 62.2788 46.5946 62.3427 46.5946 62.4193V64.1441C46.5946 64.2974 46.6585 64.3932 46.7862 64.4315L51.4047 66.1563C51.9029 66.3351 52.3054 66.6481 52.612 67.0953C52.9186 67.5424 53.0719 68.0279 53.0719 68.5517V70.2956ZM62.9424 61.2695C62.9424 61.5123 62.8529 61.7231 62.6741 61.9019C62.508 62.068 62.31 62.1511 62.08 62.1511H57.1358C56.9825 62.1511 56.9058 62.2341 56.9058 62.4002V64.9489C56.9058 65.1278 56.9825 65.2172 57.1358 65.2172H61.3901C61.6456 65.2172 61.8564 65.3003 62.0225 65.4664C62.1886 65.6324 62.2717 65.8369 62.2717 66.0796V66.6162C62.2717 66.8589 62.1886 67.0697 62.0225 67.2486C61.8564 67.4147 61.6456 67.4977 61.3901 67.4977H57.1358C56.9825 67.4977 56.9058 67.5744 56.9058 67.7277V71.9437C56.9058 72.1864 56.8164 72.3972 56.6375 72.5761C56.4715 72.7422 56.267 72.8252 56.0243 72.8252H55.4877C55.2578 72.8252 55.0534 72.7422 54.8745 72.5761C54.7084 72.3972 54.6254 72.1864 54.6254 71.9437V60.7521C54.6254 60.4966 54.7084 60.2858 54.8745 60.1197C55.0534 59.9536 55.2578 59.8706 55.4877 59.8706H62.08C62.31 59.8706 62.508 59.9536 62.6741 60.1197C62.8529 60.2858 62.9424 60.4966 62.9424 60.7521V61.2695ZM73.2461 70.2956C73.2461 70.7555 73.1311 71.1771 72.9012 71.5604C72.6712 71.9437 72.3646 72.2503 71.9813 72.4802C71.598 72.7102 71.1764 72.8252 70.7165 72.8252H67.0371C66.5772 72.8252 66.1492 72.7102 65.7531 72.4802C65.3699 72.2503 65.0633 71.9437 64.8333 71.5604C64.6033 71.1771 64.4883 70.7555 64.4883 70.2956V62.4193C64.4883 61.9466 64.6033 61.5187 64.8333 61.1354C65.0633 60.7521 65.3699 60.4455 65.7531 60.2155C66.1492 59.9856 66.5772 59.8706 67.0371 59.8706H70.7165C71.1764 59.8706 71.598 59.9856 71.9813 60.2155C72.3646 60.4455 72.6712 60.7521 72.9012 61.1354C73.1311 61.5187 73.2461 61.9466 73.2461 62.4193V70.2956ZM70.9656 70.2956V62.4193C70.9656 62.2405 70.8826 62.1511 70.7165 62.1511H67.0371C66.9732 62.1511 66.9093 62.1766 66.8455 62.2277C66.7944 62.2788 66.7688 62.3427 66.7688 62.4193V70.2956C66.7688 70.3595 66.7944 70.4234 66.8455 70.4872C66.9093 70.5383 66.9732 70.5639 67.0371 70.5639H70.7165C70.7804 70.5639 70.8379 70.5383 70.889 70.4872C70.9401 70.4234 70.9656 70.3595 70.9656 70.2956ZM83.4807 71.6179C83.6085 71.9117 83.5893 72.18 83.4232 72.4228C83.2316 72.691 82.9888 72.8252 82.695 72.8252H82.1201C81.954 72.8252 81.7879 72.7741 81.6218 72.6719C81.4685 72.5697 81.3599 72.4419 81.296 72.2886L79.4947 67.9768C79.4308 67.8235 79.3158 67.7468 79.1497 67.7468H77.3675C77.2014 67.7468 77.1184 67.8299 77.1184 67.996V71.9437C77.1184 72.1864 77.0289 72.3972 76.8501 72.5761C76.684 72.7422 76.4796 72.8252 76.2368 72.8252H75.7003C75.4575 72.8252 75.2531 72.7422 75.087 72.5761C74.9337 72.3972 74.8571 72.1864 74.8571 71.9437V60.7521C74.8571 60.4966 74.9337 60.2858 75.087 60.1197C75.2531 59.9536 75.4575 59.8706 75.7003 59.8706H80.8936C81.3535 59.8706 81.7751 59.9856 82.1584 60.2155C82.5417 60.4455 82.8483 60.7521 83.0783 61.1354C83.3082 61.5187 83.4232 61.9466 83.4232 62.4193V65.2172C83.4232 65.7155 83.2891 66.169 83.0208 66.5779C82.7653 66.9739 82.4267 67.2805 82.0051 67.4977C81.954 67.5105 81.9157 67.5552 81.8901 67.6319C81.8646 67.6957 81.871 67.7596 81.9093 67.8235L83.4807 71.6179ZM81.1427 65.2172V62.4193C81.1427 62.2405 81.0597 62.1511 80.8936 62.1511H77.3675C77.2014 62.1511 77.1184 62.2341 77.1184 62.4002V65.2172C77.1184 65.3833 77.2014 65.4664 77.3675 65.4664H80.8936C81.0597 65.4664 81.1427 65.3833 81.1427 65.2172ZM93.6578 70.2956C93.6578 70.7555 93.5428 71.1771 93.3128 71.5604C93.0829 71.9437 92.7763 72.2503 92.393 72.4802C92.0097 72.7102 91.5881 72.8252 91.1282 72.8252H87.6787C87.2188 72.8252 86.7908 72.7102 86.3948 72.4802C86.0115 72.2503 85.7049 71.9437 85.4749 71.5604C85.2449 71.1771 85.13 70.7555 85.13 70.2956V62.4193C85.13 61.9466 85.2449 61.5187 85.4749 61.1354C85.7049 60.7521 86.0115 60.4455 86.3948 60.2155C86.7908 59.9856 87.2188 59.8706 87.6787 59.8706H91.1282C91.5881 59.8706 92.0097 59.9856 92.393 60.2155C92.7763 60.4455 93.0829 60.7521 93.3128 61.1354C93.5428 61.5187 93.6578 61.9466 93.6578 62.4193V62.9368C93.6578 63.1795 93.5747 63.3839 93.4087 63.55C93.2426 63.7161 93.0318 63.7991 92.7763 63.7991H92.2588C92.0161 63.7991 91.8053 63.7161 91.6264 63.55C91.4603 63.3839 91.3773 63.1795 91.3773 62.9368V62.4193C91.3773 62.2405 91.2943 62.1511 91.1282 62.1511H87.6787C87.5126 62.1511 87.4296 62.2405 87.4296 62.4193V70.2956C87.4296 70.3595 87.4552 70.4234 87.5063 70.4872C87.5574 70.5383 87.6148 70.5639 87.6787 70.5639H91.1282C91.1921 70.5639 91.2495 70.5383 91.3007 70.4872C91.3518 70.4234 91.3773 70.3595 91.3773 70.2956V69.7207C91.3773 69.4779 91.4603 69.2735 91.6264 69.1075C91.8053 68.9286 92.0161 68.8392 92.2588 68.8392H92.7763C93.0318 68.8392 93.2426 68.9286 93.4087 69.1075C93.5747 69.2735 93.6578 69.4779 93.6578 69.7207V70.2956ZM103.534 71.9437C103.534 72.1864 103.445 72.3972 103.266 72.5761C103.1 72.7422 102.902 72.8252 102.672 72.8252H96.0794C95.8495 72.8252 95.6451 72.7422 95.4662 72.5761C95.3001 72.3972 95.2171 72.1864 95.2171 71.9437V60.7521C95.2171 60.4966 95.3001 60.2858 95.4662 60.1197C95.6451 59.9536 95.8495 59.8706 96.0794 59.8706H102.672C102.902 59.8706 103.1 59.9536 103.266 60.1197C103.445 60.2858 103.534 60.4966 103.534 60.7521V61.2695C103.534 61.5123 103.445 61.7231 103.266 61.9019C103.1 62.068 102.902 62.1511 102.672 62.1511H97.7275C97.5742 62.1511 97.4975 62.2341 97.4975 62.4002V64.9489C97.4975 65.1278 97.5742 65.2172 97.7275 65.2172H101.982C102.237 65.2172 102.448 65.3003 102.614 65.4664C102.78 65.6324 102.863 65.8369 102.863 66.0796V66.6162C102.863 66.8589 102.78 67.0697 102.614 67.2486C102.448 67.4147 102.237 67.4977 101.982 67.4977H97.7275C97.5742 67.4977 97.4975 67.5744 97.4975 67.7277V70.3148C97.4975 70.4808 97.5742 70.5639 97.7275 70.5639H102.672C102.902 70.5639 103.1 70.6469 103.266 70.813C103.445 70.9791 103.534 71.1899 103.534 71.4454V71.9437Z" fill="#2581D1"/>
<path d="M86.2613 14.581C84.6366 14.581 83.0368 14.7893 81.4954 15.1976C78.8458 6.41565 70.6888 0 61.0486 0C56.3661 0 52.0417 1.51643 48.5173 4.07435H9.61514C8.99857 2.06634 7.12387 0.599905 4.91589 0.599905C2.20798 0.608237 0 2.80789 0 5.51579C0 8.22369 2.20798 10.4317 4.91589 10.4317C7.12387 10.4317 8.99857 8.96524 9.61514 6.95723H67.306L44.3513 8.07372C42.9599 9.81511 41.8434 11.7815 41.0518 13.9061H16.1641C15.5475 11.8981 13.6728 10.4317 11.4648 10.4317C8.75694 10.4317 6.54896 12.6397 6.54896 15.3476C6.54896 18.0555 8.75694 20.2634 11.4648 20.2634C13.6728 20.2634 15.5475 18.797 16.1641 16.789H73.8549L39.9103 18.4387C39.8437 18.9303 39.7937 19.4219 39.7604 19.9135C39.0521 19.8219 38.3273 19.7719 37.6107 19.7719C33.5697 19.7719 29.8619 21.2633 27.029 23.7296H9.61514C8.99857 21.7215 7.12387 20.2551 4.91589 20.2551C2.20798 20.2551 0 22.4631 0 25.171C0 27.8789 2.20798 30.0869 4.91589 30.0869C7.12387 30.0869 8.99857 28.6205 9.61514 26.6124H67.306L23.1297 28.7621C22.3881 30.2452 21.8799 31.8616 21.6216 33.5613H16.1558C15.5392 31.5533 13.6645 30.0869 11.4565 30.0869C8.74861 30.0869 6.54063 32.2949 6.54063 35.0028C6.54063 37.7107 8.74861 39.9187 11.4565 39.9187C13.6645 39.9187 15.5392 38.4522 16.1558 36.4442H73.8466L21.6882 38.6855C21.9798 40.3519 22.5214 41.935 23.2796 43.3848H9.61514C8.99857 41.3768 7.12387 39.9103 4.91589 39.9103C2.20798 39.9103 0 42.1183 0 44.8262C0 47.5341 2.20798 49.7421 4.91589 49.7421C7.12387 49.7421 8.99857 48.2757 9.61514 46.2677H67.306L27.1457 48.2173C29.9702 50.617 33.6197 52.0751 37.6024 52.0751H86.253C96.593 52.0751 105 43.6681 105 33.328C105 22.988 96.593 14.581 86.253 14.581H86.2613ZM4.91589 7.5488C3.79107 7.5488 2.88288 6.64061 2.88288 5.51579C2.88288 4.39097 3.7994 3.48278 4.91589 3.48278C6.03238 3.48278 6.9489 4.39097 6.9489 5.51579C6.9489 6.64061 6.04071 7.5488 4.91589 7.5488ZM11.4648 17.3722C10.34 17.3722 9.43184 16.4641 9.43184 15.3392C9.43184 14.2144 10.3484 13.3062 11.4648 13.3062C12.5813 13.3062 13.4979 14.2227 13.4979 15.3392C13.4979 16.4557 12.5897 17.3722 11.4648 17.3722ZM4.91589 27.1957C3.79107 27.1957 2.88288 26.2875 2.88288 25.1627C2.88288 24.0379 3.7994 23.1297 4.91589 23.1297C6.03238 23.1297 6.9489 24.0462 6.9489 25.1627C6.9489 26.2792 6.04071 27.1957 4.91589 27.1957ZM11.4648 37.0275C10.34 37.0275 9.43184 36.1109 9.43184 34.9944C9.43184 33.878 10.3484 32.9614 11.4648 32.9614C12.5813 32.9614 13.4979 33.878 13.4979 34.9944C13.4979 36.1109 12.5897 37.0275 11.4648 37.0275ZM4.91589 46.8509C3.79107 46.8509 2.88288 45.9344 2.88288 44.8179C2.88288 43.7014 3.7994 42.7849 4.91589 42.7849C6.03238 42.7849 6.9489 43.6931 6.9489 44.8179C6.9489 45.9427 6.04071 46.8509 4.91589 46.8509Z" fill="url(#paint0_linear_277_10)"/>
<defs>
<linearGradient id="paint0_linear_277_10" x1="0" y1="26.0375" x2="105.008" y2="26.0375" gradientUnits="userSpaceOnUse">
<stop stop-color="#4ABDFD"/>
<stop offset="0.15" stop-color="#41AEF2"/>
<stop offset="0.43" stop-color="#2988D6"/>
<stop offset="0.48" stop-color="#2581D1"/>
<stop offset="0.98" stop-color="#2581D1"/>
</linearGradient>
</defs>
</svg>
