<svg width="71" height="71" viewBox="0 0 71 71" fill="none" xmlns="http://www.w3.org/2000/svg">
<path d="M57.686 27.5818C56.6183 27.5818 55.5671 27.7187 54.5541 27.987C52.813 22.216 47.4526 18 41.1177 18C38.0405 18 35.1989 18.9965 32.8828 20.6774H7.31852C6.91335 19.3579 5.6814 18.3942 4.23044 18.3942C2.45096 18.3997 1 19.8452 1 21.6247C1 23.4041 2.45096 24.8551 4.23044 24.8551C5.6814 24.8551 6.91335 23.8914 7.31852 22.5719H45.2296L30.1451 23.3056C29.2308 24.4499 28.4971 25.7421 27.9769 27.1383H11.6221C11.2169 25.8188 9.985 24.8551 8.53404 24.8551C6.75456 24.8551 5.3036 26.3061 5.3036 28.0855C5.3036 29.865 6.75456 31.316 8.53404 31.316C9.985 31.316 11.2169 30.3523 11.6221 29.0328H49.5332L27.2268 30.1169C27.183 30.4399 27.1501 30.763 27.1282 31.086C26.6628 31.0258 26.1865 30.9929 25.7156 30.9929C23.0601 30.9929 20.6236 31.973 18.7619 33.5937H7.31852C6.91335 32.2742 5.6814 31.3105 4.23044 31.3105C2.45096 31.3105 1 32.7615 1 34.5409C1 36.3204 2.45096 37.7714 4.23044 37.7714C5.6814 37.7714 6.91335 36.8077 7.31852 35.4882H45.2296L16.1995 36.9008C15.7122 37.8754 15.3782 38.9376 15.2085 40.0546H11.6166C11.2115 38.735 9.97953 37.7714 8.52857 37.7714C6.74909 37.7714 5.29813 39.2223 5.29813 41.0018C5.29813 42.7813 6.74909 44.2323 8.52857 44.2323C9.97953 44.2323 11.2115 43.2686 11.6166 41.9491H49.5278L15.2523 43.4219C15.4439 44.517 15.7998 45.5573 16.298 46.51H7.31852C6.91335 45.1904 5.6814 44.2268 4.23044 44.2268C2.45096 44.2268 1 45.6777 1 47.4572C1 49.2367 2.45096 50.6877 4.23044 50.6877C5.6814 50.6877 6.91335 49.724 7.31852 48.4045H45.2296L18.8386 49.6857C20.6947 51.2626 23.0929 52.2208 25.7101 52.2208H57.6805C64.4754 52.2208 70 46.6962 70 39.9013C70 33.1064 64.4754 27.5818 57.6805 27.5818H57.686ZM4.23044 22.9606C3.49127 22.9606 2.89446 22.3638 2.89446 21.6247C2.89446 20.8855 3.49675 20.2887 4.23044 20.2887C4.96413 20.2887 5.56642 20.8855 5.56642 21.6247C5.56642 22.3638 4.96961 22.9606 4.23044 22.9606ZM8.53404 29.416C7.79487 29.416 7.19806 28.8192 7.19806 28.0801C7.19806 27.3409 7.80035 26.7441 8.53404 26.7441C9.26774 26.7441 9.87002 27.3464 9.87002 28.0801C9.87002 28.8138 9.27321 29.416 8.53404 29.416ZM4.23044 35.8714C3.49127 35.8714 2.89446 35.2746 2.89446 34.5355C2.89446 33.7963 3.49675 33.1995 4.23044 33.1995C4.96413 33.1995 5.56642 33.8018 5.56642 34.5355C5.56642 35.2692 4.96961 35.8714 4.23044 35.8714ZM8.53404 42.3323C7.79487 42.3323 7.19806 41.73 7.19806 40.9963C7.19806 40.2627 7.80035 39.6604 8.53404 39.6604C9.26774 39.6604 9.87002 40.2627 9.87002 40.9963C9.87002 41.73 9.27321 42.3323 8.53404 42.3323ZM4.23044 48.7877C3.49127 48.7877 2.89446 48.1854 2.89446 47.4518C2.89446 46.7181 3.49675 46.1158 4.23044 46.1158C4.96413 46.1158 5.56642 46.7126 5.56642 47.4518C5.56642 48.1909 4.96961 48.7877 4.23044 48.7877Z" fill="url(#paint0_linear_2599_49)"/>
<defs>
<linearGradient id="paint0_linear_2599_49" x1="1" y1="35.1104" x2="70.0055" y2="35.1104" gradientUnits="userSpaceOnUse">
<stop stop-color="#4ABDFD"/>
<stop offset="0.15" stop-color="#41AEF2"/>
<stop offset="0.43" stop-color="#2988D6"/>
<stop offset="0.48" stop-color="#2581D1"/>
<stop offset="0.98" stop-color="#2581D1"/>
</linearGradient>
</defs>
</svg>
